PathFileType	4	(X/Y/Z)	/Users/itak/Documents/Research/Walk-IL/dataset/trc/00356_00011.trc
DataRate	CameraRate	NumFrames	NumMarkers	Units	OrigDataRate	OrigDataStartFrame	OrigNumFrames
100.000000	100.000000	4	54	mm	100.000000	546	729
Frame#	Time	RPSI			LPSI			STRN			T10			C7			CLAV			RBAK			LBAK			LSHO			LUPA			LAEL			LAOL			LWTS			LWPS			LFRA			LIFD			LHPS			LHTS			RSHO			RUPA			RAEL			RAOL			RWTS			RWPS			RFRA			RIFD			RHTS			RHPS			RBHD			LFHD			RFHD			LBHD			LHIP			RHIP			RASI			LASI			LKNE			LTHI			LANK			LTIP			LTOE			LMT1			LMT5			LHEE			RKNE			RANK			RTIP			RTOE			RMT1			RMT5			RHEE			L3			RTHI			*53			
		X1	Y1	Z1	X2	Y2	Z2	X3	Y3	Z3	X4	Y4	Z4	X5	Y5	Z5	X6	Y6	Z6	X7	Y7	Z7	X8	Y8	Z8	X9	Y9	Z9	X10	Y10	Z10	X11	Y11	Z11	X12	Y12	Z12	X13	Y13	Z13	X14	Y14	Z14	X15	Y15	Z15	X16	Y16	Z16	X17	Y17	Z17	X18	Y18	Z18	X19	Y19	Z19	X20	Y20	Z20	X21	Y21	Z21	X22	Y22	Z22	X23	Y23	Z23	X24	Y24	Z24	X25	Y25	Z25	X26	Y26	Z26	X27	Y27	Z27	X28	Y28	Z28	X29	Y29	Z29	X30	Y30	Z30	X31	Y31	Z31	X32	Y32	Z32	X33	Y33	Z33	X34	Y34	Z34	X35	Y35	Z35	X36	Y36	Z36	X37	Y37	Z37	X38	Y38	Z38	X39	Y39	Z39	X40	Y40	Z40	X41	Y41	Z41	X42	Y42	Z42	X43	Y43	Z43	X44	Y44	Z44	X45	Y45	Z45	X46	Y46	Z46	X47	Y47	Z47	X48	Y48	Z48	X49	Y49	Z49	X50	Y50	Z50	X51	Y51	Z51	X52	Y52	Z52	X53	Y53	Z53	X54	Y54	Z54	

547	5.46	647.3226928710938	947.85546875	295.7443237304688	767.298583984375	952.5841064453125	347.0894775390625	615.138671875	1196.1005859375	531.405029296875	727.4898681640625	1131.211547851562	321.1097717285156	725.8495483398438	1379.199584960938	366.2021484375	639.0487670898438	1322.631225585938	496.5220947265625	691.3042602539062	1240.50146484375	288.3827209472656	817.7869873046875	1341.689575195312	407.1602478027344	822.04296875	1355.71484375	508.8023071289062	884.4940795898438	1235.138305664062	530.3970947265625	888.3198852539062	1036.194091796875	571.557373046875	868.5567626953125	1014.237609863281	491.1449279785156	802.5504760742188	803.7799072265625	660.8720092773438	870.2565307617188	791.6747436523438	658.7307739257812	888.78125	934.258544921875	600.2996215820312	786.7049560546875	645.6989135742188	668.6109619140625	864.4723510742188	719.6983032226562	658.3051147460938	806.2307739257812	726.6378784179688	684.8333740234375	559.123291015625	1369.091430664062	327.7256469726562	513.567626953125	1306.512817382812	279.2535095214844	499.0198059082031	1039.738891601562	246.2710266113281	579.8685302734375	1030.75146484375	287.27587890625	445.8129272460938	825.6649169921875	368.114013671875	423.7996826171875	804.7508544921875	297.8227233886719	475.6899108886719	972.6983032226562	256.4609069824219	433.3120727539062	653.5064086914062	386.2372436523438	414.7108764648438	725.44921875	387.517333984375	413.9154052734375	721.1134643554688	317.7121887207031	626.6928100585938	1587.638671875	367.904296875	607.0909423828125	1579.86962890625	575.404541015625	536.295166015625	1577.369995117188	502.5845642089844	745.2582397460938	1590.593872070312	450.086669921875	831.7996826171875	900.4983520507812	468.0926513671875	518.7733764648438	890.4747314453125	330.1680297851562	518.7774047851562	922.2384643554688	442.3206481933594	729.6716918945312	923.3193359375	555.97314453125	825.5318603515625	453.6623840332031	563.564697265625	824.4820556640625	584.05224609375	555.7522583007812	961.0321044921875	227.1700592041016	213.0468444824219	906.5111083984375	321.0548706054688	397.2179260253906	882.4508666992188	40.02774429321289	278.5455017089844	851.072998046875	98.86962890625	232.8669281005859	963.2305908203125	109.5944442749023	258.2120056152344	900.3110961914062	253.5745086669922	177.606689453125	553.6072387695312	436.366943359375	483.8243103027344	662.4522705078125	44.40178680419922	500.6154479980469	573.3714599609375	319.6865844726562	518.2246704101562	582.2518310546875	40.24773025512695	684.189208984375	650.2222900390625	30.5780143737793	667.00439453125	585.2200317382812	34.88232803344727	568.938232421875	730.0499877929688	42.00575637817383	492.6395568847656	707.7239990234375	1014.60400390625	321.0662536621094	483.510009765625	694.3081665039062	440.4809265136719	nan	nan	nan	
548	5.47	646.0485229492188	948.8662109375	302.1310729980469	765.1529541015625	953.3109130859375	355.4244689941406	610.593017578125	1197.069213867188	537.3515625	725.2457275390625	1132.13525390625	328.3099060058594	723.1993408203125	1380.048095703125	373.4911804199219	635.1207275390625	1323.567626953125	502.7892456054688	689.3409423828125	1241.501220703125	295.0288696289062	814.6365966796875	1342.461791992188	415.4857177734375	817.9711303710938	1356.345947265625	517.1595458984375	879.9419555664062	1235.533569335938	538.9417114257812	883.0626220703125	1036.12109375	578.0726318359375	863.858642578125	1014.954833984375	497.4488525390625	798.8485107421875	800.517578125	661.8387451171875	866.7738037109375	789.5858154296875	660.0464477539062	883.76708984375	933.7874755859375	605.1476440429688	785.811767578125	642.19091796875	665.2001342773438	862.263671875	717.6854858398438	657.6673583984375	803.5645751953125	722.68701171875	683.5741577148438	556.8961181640625	1370.192016601562	333.2615966796875	511.5306701660156	1307.642700195312	284.4493713378906	495.6609497070312	1040.768432617188	252.7792510986328	575.9761352539062	1031.714111328125	294.4144897460938	440.7970275878906	831.1217041015625	380.6740417480469	416.8933715820312	808.7609252929688	311.3863830566406	471.4253234863281	974.4867553710938	264.7691345214844	424.0834045410156	659.9845581054688	404.0085754394531	407.5013122558594	732.39892578125	403.4912414550781	405.1987915039062	726.0557250976562	333.8639831542969	623.7996826171875	1588.664672851562	374.6411437988281	602.4130859375	1580.395751953125	581.9442138671875	532.1452026367188	1578.09326171875	508.4660034179688	741.6368408203125	1591.485595703125	457.8545227050781	827.3314208984375	901.5794677734375	477.7599487304688	517.0895385742188	891.1896362304688	333.9111328125	514.8067626953125	922.9620971679688	446.092529296875	723.5808715820312	924.9420166015625	563.7628173828125	816.4660034179688	456.0397338867188	582.074462890625	816.7765502929688	586.1640014648438	571.8522338867188	958.23779296875	226.3397827148438	235.4322052001953	900.173583984375	322.2109680175781	418.2934875488281	876.9320678710938	42.1613655090332	304.5323181152344	846.7821655273438	99.39405822753906	256.4996643066406	958.6119995117188	110.1437530517578	283.7276611328125	898.2684326171875	252.3958435058594	198.5430603027344	551.8275756835938	436.1484069824219	484.9219055175781	662.3551635742188	44.42163467407227	500.6005859375	572.1150512695312	319.3567504882812	518.9194946289062	582.1639404296875	40.15111923217773	684.1318969726562	650.1869506835938	30.64609909057617	666.9929809570312	585.0928955078125	34.7692756652832	568.821044921875	730.0031127929688	42.15494537353516	492.6015625	705.7774658203125	1015.406127929688	327.7097778320312	477.5208129882812	696.5424194335938	445.8455200195312	nan	nan	nan	
549	5.48	645.0237426757812	949.8795776367188	308.4581909179688	763.13720703125	954.1754150390625	363.83740234375	606.0093994140625	1198.096069335938	543.1674194335938	723.0994873046875	1133.0390625	335.4521484375	720.5472412109375	1380.877685546875	380.6968994140625	631.1715698242188	1324.544677734375	508.9158020019531	687.4411010742188	1242.49951171875	301.5972290039062	811.4561767578125	1343.25048828125	423.7425537109375	813.8526000976562	1357.036010742188	525.4254150390625	875.4259033203125	1236.029541015625	547.3786010742188	877.98291015625	1036.1162109375	584.3975830078125	859.2158203125	1015.80712890625	503.5509033203125	795.2713012695312	797.6130981445312	662.8311157226562	863.4230346679688	787.889892578125	661.4317016601562	878.9150390625	933.4926147460938	609.8533935546875	785.184326171875	639.2362670898438	662.1561889648438	860.2258911132812	716.136962890625	657.239013671875	801.1099243164062	719.2266235351562	682.47265625	554.7224731445312	1371.290649414062	338.6402893066406	509.5842590332031	1308.789794921875	289.4651184082031	492.4341430664062	1041.864624023438	258.908935546875	572.216064453125	1032.745727539062	301.1747436523438	435.8213806152344	836.900146484375	392.7706604003906	410.0354919433594	813.179931640625	324.5358581542969	467.2789611816406	976.487548828125	272.7008361816406	414.7787170410156	667.0418090820312	421.2777099609375	400.2578430175781	739.8411254882812	418.9171142578125	396.4771118164062	731.561279296875	349.5569458007812	620.9063110351562	1589.694458007812	381.277099609375	597.6922607421875	1580.907348632812	588.3604736328125	527.9632568359375	1578.800415039062	514.22119140625	737.9860229492188	1592.35791015625	465.5503540039062	822.8286743164062	902.6841430664062	487.5031433105469	515.5237426757812	892.0113525390625	337.4856872558594	510.8556518554688	923.7465209960938	449.5774841308594	717.360595703125	926.469970703125	571.3362426757812	807.08349609375	458.5729370117188	599.973876953125	808.856689453125	588.4215087890625	587.4639282226562	955.0891723632812	224.4151916503906	258.2652282714844	893.4462890625	323.0460510253906	439.277587890625	870.8248291015625	43.77932357788086	331.8189392089844	841.972900390625	99.07329559326172	281.162353515625	953.4132690429688	109.9656372070312	310.2325744628906	895.9002685546875	249.9315185546875	219.7942962646484	549.9894409179688	435.9739379882812	486.065673828125	662.2420654296875	44.43571090698242	500.5703430175781	570.8966064453125	319.1133117675781	519.7001953125	582.0789794921875	40.06259536743164	684.0770874023438	650.12841796875	30.74249267578125	666.947509765625	584.969970703125	34.65532684326172	568.701171875	729.9464721679688	42.29714202880859	492.5555419921875	703.9365234375	1016.105163574219	334.5409240722656	472.2705993652344	698.5468139648438	450.6095886230469	nan	nan	nan	
550	5.49	644.240234375	950.8351440429688	314.7084045410156	761.2443237304688	955.0929565429688	372.3084106445312	601.37158203125	1199.15966796875	548.8560791015625	721.0390014648438	1133.918823242188	342.5451354980469	717.8920288085938	1381.690307617188	387.842041015625	627.1798706054688	1325.54345703125	514.908447265625	685.6002807617188	1243.487182617188	308.1153869628906	808.2429809570312	1344.048950195312	431.9409484863281	809.673095703125	1357.77294921875	533.6223754882812	870.9309692382812	1236.606323242188	555.7090454101562	873.0725708007812	1036.184814453125	590.5418701171875	854.63671875	1016.778015136719	509.4670104980469	791.8191528320312	795.0509643554688	663.8939208984375	860.20068359375	786.5477905273438	662.8976440429688	874.2474365234375	933.3500366210938	614.4180908203125	784.666015625	636.7567749023438	659.4929809570312	858.302734375	714.9873657226562	657.033447265625	798.8372802734375	716.2532958984375	681.601806640625	552.603515625	1372.382690429688	343.865966796875	507.733154296875	1309.94482421875	294.3084411621094	489.31201171875	1043.003173828125	264.6864624023438	568.5548706054688	1033.821166992188	307.5885620117188	430.8674011230469	842.9571533203125	404.3547058105469	403.3006896972656	817.9428100585938	337.2008056640625	463.2656555175781	978.64501953125	280.2091064453125	405.4583435058594	674.6401977539062	437.9962158203125	392.9951171875	747.7260131835938	433.7294921875	387.8479309082031	737.5635375976562	364.715087890625	618.0084838867188	1590.7138671875	387.8092956542969	592.9116821289062	1581.4150390625	594.649169921875	523.7469482421875	1579.496704101562	519.8436889648438	734.3017578125	1593.201049804688	473.1709289550781	818.2717895507812	903.7770385742188	497.3221740722656	514.0955810546875	892.8795166015625	340.9123840332031	506.9214477539062	924.55712890625	452.7906188964844	711.0370483398438	927.8978881835938	578.7052001953125	797.379150390625	461.213623046875	617.2384033203125	800.7108154296875	590.7781372070312	602.5477294921875	951.5792236328125	221.4455718994141	281.5731201171875	886.3156127929688	323.5349426269531	460.1604614257812	864.0568237304688	44.93331146240234	360.2719421386719	836.6150512695312	97.97885894775391	306.7693176269531	947.58056640625	109.1582870483398	337.678955078125	893.21044921875	246.2062377929688	241.3713531494141	548.1582641601562	435.8386535644531	487.2561340332031	662.1238403320312	44.44529342651367	500.5329284667969	569.7294921875	318.9356994628906	520.5578002929688	581.9979248046875	39.98075103759766	684.0259399414062	650.0596923828125	30.85085487365723	666.8822631835938	584.8605346679688	34.5486946105957	568.59423828125	729.88525390625	42.43533325195312	492.5082397460938	702.2007446289062	1016.694580078125	341.581787109375	468.7401733398438	699.6781005859375	454.0115661621094	nan	nan	nan	
